<?xml version="1.0" standalone="no"?>
<!DOCTYPE svg PUBLIC "-//W3C//DTD SVG 20010904//EN"
 "http://www.w3.org/TR/2001/REC-SVG-20010904/DTD/svg10.dtd">
<svg version="1.0" xmlns="http://www.w3.org/2000/svg"
 width="1280.000000pt" height="1227.000000pt" viewBox="0 0 1280.000000 1227.000000"
 preserveAspectRatio="xMidYMid meet">
<g transform="translate(0.000000,1227.000000) scale(0.100000,-0.100000)"
fill="#03a9f4" stroke="none">
<path d="M6310 12263 c-735 -38 -1386 -169 -2050 -413 -2120 -778 -3709 -2589
-4140 -4720 -42 -206 -80 -472 -102 -705 -19 -212 -16 -787 5 -1005 78 -772
266 -1429 601 -2098 420 -839 1063 -1584 1857 -2151 1102 -788 2465 -1200
3854 -1167 677 16 1270 114 1918 317 557 176 1148 457 1647 783 89 59 163 106
166 106 7 0 262 187 344 253 297 239 677 618 960 957 79 95 126 144 137 142
11 -3 14 1 9 14 -4 11 11 39 47 88 152 202 336 485 459 706 430 771 676 1572
760 2475 19 212 16 787 -5 1005 -78 772 -266 1429 -601 2098 -420 839 -1063
1584 -1857 2151 -1072 767 -2402 1181 -3749 1169 -113 -1 -230 -3 -260 -5z"/>
</g>
</svg>
